<svg width="34" height="32" viewBox="0 0 34 32" fill="none" xmlns="http://www.w3.org/2000/svg">
<g clip-path="url(#clip0_569_466)">
<path d="M24.7913 8.66669H24.8055M9.91634 2.66669H24.083C27.995 2.66669 31.1663 5.65146 31.1663 9.33335V22.6667C31.1663 26.3486 27.995 29.3334 24.083 29.3334H9.91634C6.00432 29.3334 2.83301 26.3486 2.83301 22.6667V9.33335C2.83301 5.65146 6.00432 2.66669 9.91634 2.66669ZM22.6663 15.16C22.8412 16.2697 22.6398 17.403 22.0908 18.3987C21.5419 19.3944 20.6733 20.2019 19.6086 20.7063C18.544 21.2106 17.3375 21.3862 16.1607 21.2079C14.9839 21.0297 13.8968 20.5068 13.054 19.7136C12.2112 18.9203 11.6556 17.8972 11.4663 16.7896C11.2769 15.6821 11.4634 14.5465 11.9993 13.5445C12.5352 12.5425 13.3931 11.725 14.4511 11.2083C15.509 10.6917 16.7132 10.5021 17.8922 10.6667C19.0948 10.8345 20.2082 11.362 21.0679 12.1711C21.9276 12.9802 22.488 14.0281 22.6663 15.16Z" stroke="#002582" stroke-width="4" stroke-linecap="round" stroke-linejoin="round"/>
</g>
<defs>
<clipPath id="clip0_569_466">
<rect width="34" height="32" fill="white"/>
</clipPath>
</defs>
</svg>
