<svg width="40" height="40" viewBox="0 0 40 40" fill="none" xmlns="http://www.w3.org/2000/svg">
<g clip-path="url(#clip0_943_774)">
<path d="M35 16.6667C35 28.3333 20 38.3333 20 38.3333C20 38.3333 5 28.3333 5 16.6667C5 12.6884 6.58035 8.87311 9.3934 6.06007C12.2064 3.24702 16.0218 1.66667 20 1.66667C23.9782 1.66667 27.7936 3.24702 30.6066 6.06007C33.4196 8.87311 35 12.6884 35 16.6667Z" stroke="#002279" stroke-width="3.5" stroke-linecap="round" stroke-linejoin="round"/>
<path d="M20 21.6667C22.7614 21.6667 25 19.4281 25 16.6667C25 13.9052 22.7614 11.6667 20 11.6667C17.2386 11.6667 15 13.9052 15 16.6667C15 19.4281 17.2386 21.6667 20 21.6667Z" stroke="#002279" stroke-width="3.5" stroke-linecap="round" stroke-linejoin="round"/>
</g>
<defs>
<clipPath id="clip0_943_774">
<rect width="40" height="40" fill="white"/>
</clipPath>
</defs>
</svg>
