<svg width="34" height="32" viewBox="0 0 34 32" fill="none" xmlns="http://www.w3.org/2000/svg">
<g clip-path="url(#clip0_569_468)">
<path d="M32.5837 3.99998C31.227 4.90062 29.725 5.58946 28.1353 6.03998C27.2821 5.11666 26.1482 4.46224 24.887 4.16521C23.6257 3.86819 22.2979 3.94291 21.0833 4.37925C19.8686 4.81559 18.8256 5.59251 18.0954 6.60494C17.3651 7.61736 16.9829 8.81643 17.0003 10.04V11.3733C14.5107 11.4341 12.0438 10.9144 9.81925 9.86057C7.59471 8.80675 5.68161 7.25149 4.25033 5.33331C4.25033 5.33331 -1.41634 17.3333 11.3337 22.6666C8.41607 24.5306 4.94046 25.4652 1.41699 25.3333C14.167 32 29.7503 25.3333 29.7503 9.99998C29.749 9.62858 29.7111 9.25811 29.637 8.89331C31.0828 7.5513 32.1032 5.85693 32.5837 3.99998Z" stroke="#002582" stroke-width="4" stroke-linecap="round" stroke-linejoin="round"/>
</g>
<defs>
<clipPath id="clip0_569_468">
<rect width="34" height="32" fill="white"/>
</clipPath>
</defs>
</svg>
