<svg width="39" height="44" viewBox="0 0 39 44" fill="none" xmlns="http://www.w3.org/2000/svg">
<g clip-path="url(#clip0_569_470)">
<path d="M36.6275 11.77C36.4344 10.8999 36.0413 10.1027 35.4878 9.45889C34.9342 8.81509 34.2399 8.34749 33.475 8.10331C30.68 7.33331 19.5 7.33331 19.5 7.33331C19.5 7.33331 8.31995 7.33331 5.52495 8.17665C4.75998 8.42082 4.06567 8.88842 3.51214 9.53222C2.95862 10.176 2.56548 10.9732 2.37245 11.8433C1.86093 15.0435 1.61071 18.2899 1.62495 21.5416C1.60672 24.8179 1.85695 28.089 2.37245 31.3133C2.58526 32.1564 2.9872 32.9232 3.53944 33.5399C4.09167 34.1565 4.77554 34.602 5.52495 34.8333C8.31995 35.6766 19.5 35.6766 19.5 35.6766C19.5 35.6766 30.68 35.6766 33.475 34.8333C34.2399 34.5891 34.9342 34.1215 35.4878 33.4777C36.0413 32.8339 36.4344 32.0367 36.6275 31.1666C37.135 27.9906 37.3852 24.7689 37.375 21.5416C37.3932 18.2654 37.143 14.9943 36.6275 11.77Z" stroke="#002582" stroke-width="4" stroke-linecap="round" stroke-linejoin="round"/>
<path d="M15.8437 27.5366L25.1875 21.5416L15.8437 15.5466V27.5366Z" stroke="#002582" stroke-width="4" stroke-linecap="round" stroke-linejoin="round"/>
</g>
<defs>
<clipPath id="clip0_569_470">
<rect width="39" height="44" fill="white"/>
</clipPath>
</defs>
</svg>
